<svg width="26" height="26" viewBox="0 0 26 26" fill="none" xmlns="http://www.w3.org/2000/svg">
<path d="M12 0.75H14C20.2132 0.75 25.25 5.7868 25.25 12V14C25.25 20.2132 20.2132 25.25 14 25.25H0.75V12C0.75 5.7868 5.7868 0.75 12 0.75Z" stroke="#003399" stroke-width="1.5"/>
<path d="M13 5C11.9395 5.00121 10.9228 5.42303 10.1729 6.17291C9.42303 6.9228 9.00121 7.93951 9 9C9 9.26522 9.10536 9.51957 9.29289 9.70711C9.48043 9.89464 9.73478 10 10 10C10.2652 10 10.5196 9.89464 10.7071 9.70711C10.8946 9.51957 11 9.26522 11 9C11 8.46957 11.2107 7.96086 11.5858 7.58579C11.9609 7.21071 12.4696 7 13 7C13.5304 7 14.0391 7.21071 14.4142 7.58579C14.7893 7.96086 15 8.46957 15 9C15 9.86718 14.4902 10.3994 13.6524 11.1729C12.877 11.8867 12 12.6953 12 14C12 14.2652 12.1054 14.5196 12.2929 14.7071C12.4804 14.8946 12.7348 15 13 15C13.2652 15 13.5196 14.8946 13.7071 14.7071C13.8946 14.5196 14 14.2652 14 14C14 13.5928 14.3828 13.2188 15.0078 12.6426C15.8477 11.8672 17 10.8057 17 9C16.9988 7.93951 16.577 6.9228 15.8271 6.17291C15.0772 5.42303 14.0605 5.00121 13 5Z" fill="#003399"/>
<path d="M13 17C12.6044 17 12.2178 17.1173 11.8889 17.3371C11.56 17.5568 11.3036 17.8692 11.1522 18.2346C11.0009 18.6001 10.9613 19.0022 11.0384 19.3902C11.1156 19.7781 11.3061 20.1345 11.5858 20.4142C11.8655 20.6939 12.2219 20.8844 12.6098 20.9616C12.9978 21.0387 13.3999 20.9991 13.7654 20.8478C14.1308 20.6964 14.4432 20.44 14.6629 20.1111C14.8827 19.7822 15 19.3956 15 19C14.9995 18.4697 14.7886 17.9613 14.4136 17.5864C14.0387 17.2114 13.5303 17.0005 13 17Z" fill="#003399"/>
</svg>
