<svg width="90" height="110" viewBox="0 0 90 110" fill="none" xmlns="http://www.w3.org/2000/svg">
<g filter="url(#filter0_d_313_7440)">
<rect x="20" y="20" width="50" height="70" rx="25" fill="white" shape-rendering="crispEdges"/>
<path d="M43.5 70C43.5 70.8284 44.1716 71.5 45 71.5C45.8284 71.5 46.5 70.8284 46.5 70L43.5 70ZM46.0607 38.9393C45.4749 38.3536 44.5251 38.3536 43.9393 38.9393L34.3934 48.4853C33.8076 49.0711 33.8076 50.0208 34.3934 50.6066C34.9792 51.1924 35.9289 51.1924 36.5147 50.6066L45 42.1213L53.4853 50.6066C54.0711 51.1924 55.0208 51.1924 55.6066 50.6066C56.1924 50.0208 56.1924 49.0711 55.6066 48.4853L46.0607 38.9393ZM46.5 70L46.5 40L43.5 40L43.5 70L46.5 70Z" fill="#FFB941"/>
</g>
<defs>
<filter id="filter0_d_313_7440" x="0" y="0" width="90" height="110" filterUnits="userSpaceOnUse" color-interpolation-filters="sRGB">
<feFlood flood-opacity="0" result="BackgroundImageFix"/>
<feColorMatrix in="SourceAlpha" type="matrix" values="0 0 0 0 0 0 0 0 0 0 0 0 0 0 0 0 0 0 127 0" result="hardAlpha"/>
<feOffset/>
<feGaussianBlur stdDeviation="10"/>
<feComposite in2="hardAlpha" operator="out"/>
<feColorMatrix type="matrix" values="0 0 0 0 0 0 0 0 0 0 0 0 0 0 0 0 0 0 0.2 0"/>
<feBlend mode="normal" in2="BackgroundImageFix" result="effect1_dropShadow_313_7440"/>
<feBlend mode="normal" in="SourceGraphic" in2="effect1_dropShadow_313_7440" result="shape"/>
</filter>
</defs>
</svg>
