<svg width="33" height="33" viewBox="0 0 33 33" fill="none" xmlns="http://www.w3.org/2000/svg">
<g clip-path="url(#clip0_547_8492)">
<path d="M12.0597 29.5706C12.7998 29.5706 13.3997 28.9707 13.3997 28.2306C13.3997 27.4906 12.7998 26.8906 12.0597 26.8906C11.3197 26.8906 10.7197 27.4906 10.7197 28.2306C10.7197 28.9707 11.3197 29.5706 12.0597 29.5706Z" stroke="black" stroke-width="2.01" stroke-linecap="round" stroke-linejoin="round"/>
<path d="M26.8 29.5706C27.54 29.5706 28.14 28.9707 28.14 28.2306C28.14 27.4906 27.54 26.8906 26.8 26.8906C26.0599 26.8906 25.46 27.4906 25.46 28.2306C25.46 28.9707 26.0599 29.5706 26.8 29.5706Z" stroke="black" stroke-width="2.01" stroke-linecap="round" stroke-linejoin="round"/>
<path d="M1.33984 1.42969H6.69984L10.291 19.3723C10.4136 19.9892 10.7492 20.5434 11.2392 20.9378C11.7291 21.3322 12.3422 21.5417 12.971 21.5297H25.9958C26.6247 21.5417 27.2378 21.3322 27.7277 20.9378C28.2177 20.5434 28.5533 19.9892 28.6758 19.3723L30.8198 8.12969H8.03984" stroke="black" stroke-width="2.01" stroke-linecap="round" stroke-linejoin="round"/>
</g>
<defs>
<clipPath id="clip0_547_8492">
<rect width="32.16" height="32.16" fill="white" transform="translate(0 0.0898438)"/>
</clipPath>
</defs>
</svg>
