<svg width="19" height="19" viewBox="0 0 19 19" fill="none" xmlns="http://www.w3.org/2000/svg">
<path d="M17.6405 16.798L13.7811 12.9386H13.7395C14.9291 11.536 15.5302 9.72781 15.4172 7.89218C15.3042 6.05655 14.4857 4.33573 13.1331 3.08968C11.7804 1.84363 9.99834 1.16888 8.15962 1.20658C6.3209 1.24428 4.56797 1.9915 3.26753 3.29194C1.96709 4.59239 1.21986 6.34531 1.18216 8.18403C1.14446 10.0227 1.81921 11.8048 3.06526 13.1575C4.31131 14.5101 6.03213 15.3286 7.86776 15.4416C9.70339 15.5546 11.5116 14.9535 12.9142 13.7639C12.9142 13.7639 12.9142 13.7936 12.9142 13.8055L16.7736 17.6649C16.8288 17.7205 16.8945 17.7647 16.9668 17.7948C17.0392 17.825 17.1168 17.8405 17.1952 17.8405C17.2735 17.8405 17.3511 17.825 17.4235 17.7948C17.4959 17.7647 17.5615 17.7205 17.6167 17.6649C17.6776 17.611 17.7267 17.5452 17.7611 17.4715C17.7955 17.3978 17.8144 17.3179 17.8166 17.2366C17.8189 17.1553 17.8044 17.0745 17.7741 16.999C17.7438 16.9236 17.6983 16.8552 17.6405 16.798ZM8.31265 14.2508C7.13833 14.2508 5.99037 13.9026 5.01396 13.2502C4.03754 12.5977 3.27652 11.6704 2.82712 10.5855C2.37772 9.50057 2.26014 8.30673 2.48924 7.15497C2.71834 6.00321 3.28383 4.94525 4.11421 4.11487C4.94458 3.2845 6.00254 2.71901 7.15431 2.48991C8.30607 2.26081 9.4999 2.37839 10.5848 2.82778C11.6698 3.27718 12.5971 4.0382 13.2495 5.01462C13.9019 5.99104 14.2502 7.13899 14.2502 8.31332C14.2502 9.09304 14.0966 9.86513 13.7982 10.5855C13.4998 11.3059 13.0624 11.9604 12.5111 12.5118C11.9598 13.0631 11.3052 13.5005 10.5848 13.7989C9.86447 14.0972 9.09238 14.2508 8.31265 14.2508Z" fill="black"/>
</svg>
