<svg width="18" height="19" viewBox="0 0 18 19" fill="none" xmlns="http://www.w3.org/2000/svg">
<g clip-path="url(#clip0_503_4146)">
<path d="M8.25 3.5H3C2.60218 3.5 2.22064 3.65804 1.93934 3.93934C1.65804 4.22064 1.5 4.60218 1.5 5V15.5C1.5 15.8978 1.65804 16.2794 1.93934 16.5607C2.22064 16.842 2.60218 17 3 17H13.5C13.8978 17 14.2794 16.842 14.5607 16.5607C14.842 16.2794 15 15.8978 15 15.5V10.25" stroke="#003399" stroke-width="2" stroke-linecap="round" stroke-linejoin="round"/>
<path d="M13.875 2.37419C14.1734 2.07582 14.578 1.9082 15 1.9082C15.422 1.9082 15.8266 2.07582 16.125 2.37419C16.4234 2.67256 16.591 3.07724 16.591 3.49919C16.591 3.92115 16.4234 4.32582 16.125 4.62419L9 11.7492L6 12.4992L6.75 9.49919L13.875 2.37419Z" stroke="#003399" stroke-width="2" stroke-linecap="round" stroke-linejoin="round"/>
</g>
<defs>
<clipPath id="clip0_503_4146">
<rect width="18" height="18" fill="white" transform="translate(0 0.5)"/>
</clipPath>
</defs>
</svg>
