<svg width="31" height="29" viewBox="0 0 31 29" fill="none" xmlns="http://www.w3.org/2000/svg">
<path d="M22.1506 1.96236C26.0428 1.96236 29.2058 5.16132 29.2058 9.11161C29.2058 11.141 28.369 12.969 27.0332 14.2702L15.6404 25.8732L4.04799 14.0611C2.83502 12.7753 2.08266 11.0325 2.08266 9.11161C2.08266 5.16132 5.23794 1.96236 9.1379 1.96236C12.0705 1.96236 14.581 3.77485 15.6481 6.3619C16.6998 3.78259 19.2179 1.96236 22.1506 1.96236ZM22.1506 0.769531C19.5557 0.769531 17.1758 1.99335 15.6404 4.00722C14.105 1.99335 11.7251 0.769531 9.13022 0.769531C4.59307 0.769531 0.900391 4.51069 0.900391 9.11161C0.900391 11.2727 1.71416 13.3253 3.19584 14.8899L14.8036 26.7175L15.6404 27.5695L16.4772 26.7175L27.8623 15.1145C29.4745 13.5421 30.3804 11.4043 30.3804 9.11161C30.3804 4.51069 26.6877 0.769531 22.1506 0.769531Z" fill="black" stroke="black" stroke-width="0.67"/>
</svg>
