<svg width="12" height="12" viewBox="0 0 12 12" fill="none" xmlns="http://www.w3.org/2000/svg">
<path d="M6.00038 11.1775L0.625859 7.59433C0.501868 7.51152 0.415829 7.38287 0.386649 7.23665C0.357469 7.09043 0.387537 6.93861 0.470244 6.81454C0.552952 6.69048 0.68153 6.60434 0.827724 6.57503C0.973919 6.54573 1.12577 6.57567 1.2499 6.65827L5.43788 9.44985L5.43788 1.49902C5.43788 1.34984 5.49714 1.20676 5.60263 1.10128C5.70812 0.995786 5.85119 0.936523 6.00038 0.936523C6.14956 0.936523 6.29264 0.995786 6.39813 1.10128C6.50362 1.20676 6.56288 1.34984 6.56288 1.49902L6.56288 9.44985L10.7509 6.65827C10.875 6.57715 11.0261 6.54832 11.1714 6.57806C11.3167 6.60781 11.4444 6.69372 11.5266 6.8171C11.6089 6.94048 11.6391 7.09136 11.6107 7.2369C11.5823 7.38245 11.4975 7.51089 11.3749 7.59427L6.00038 11.1775Z" fill="#003399"/>
</svg>
