<svg width="26" height="30" viewBox="0 0 26 30" fill="none" xmlns="http://www.w3.org/2000/svg">
<path d="M21.6616 15.0434C21.5562 14.9387 21.4312 14.8558 21.2937 14.7994C21.1563 14.7431 21.0091 14.7143 20.8605 14.7149C20.712 14.7154 20.565 14.7452 20.4279 14.8025C20.2909 14.8598 20.1665 14.9436 20.0618 15.049C19.9571 15.1544 19.8742 15.2794 19.8179 15.4169C19.7615 15.5543 19.7327 15.7015 19.7333 15.8501C19.7338 15.9987 19.7636 16.1457 19.8209 16.2827C19.8782 16.4198 19.962 16.5442 20.0674 16.6488C21.0241 17.5954 21.7835 18.7224 22.3017 19.9644C22.8199 21.2065 23.0865 22.539 23.0862 23.8848C23.0862 25.2642 19.1177 27.2767 12.9106 27.2767C6.70345 27.2767 2.73495 25.2642 2.73495 23.8848C2.73316 22.5479 2.99485 21.2237 3.50507 19.9879C4.01528 18.7521 4.76402 17.629 5.7085 16.6828C5.91908 16.4709 6.03727 16.1844 6.03727 15.8857C6.03727 15.587 5.91908 15.3004 5.7085 15.0886C5.49666 14.878 5.2101 14.7598 4.91141 14.7598C4.61271 14.7598 4.32615 14.878 4.11432 15.0886C2.95554 16.2409 2.03706 17.6118 1.41211 19.1217C0.787166 20.6317 0.468198 22.2507 0.473703 23.8848C0.473703 27.5594 6.88435 29.538 12.9106 29.538C18.9368 29.538 25.3475 27.5594 25.3475 23.8848C25.3518 22.2401 25.028 20.611 24.3952 19.0928C23.7623 17.5747 22.833 16.198 21.6616 15.0434Z" fill="black"/>
<path d="M12.9105 15.9713C14.4758 15.9713 16.0059 15.5072 17.3075 14.6375C18.609 13.7679 19.6234 12.5318 20.2224 11.0857C20.8214 9.63949 20.9781 8.04818 20.6728 6.51294C20.3674 4.9777 19.6136 3.56749 18.5068 2.46065C17.3999 1.3538 15.9897 0.600032 14.4545 0.294654C12.9192 -0.0107237 11.3279 0.146007 9.88177 0.745028C8.4356 1.34405 7.19955 2.35845 6.32991 3.65997C5.46026 4.96148 4.99609 6.49164 4.99609 8.05696C4.99609 10.156 5.82993 12.169 7.31416 13.6533C8.79839 15.1375 10.8114 15.9713 12.9105 15.9713ZM12.9105 2.40383C14.0286 2.40383 15.1215 2.73538 16.0512 3.35655C16.9808 3.97773 17.7054 4.86063 18.1333 5.8936C18.5611 6.92657 18.6731 8.06323 18.455 9.15983C18.2368 10.2564 17.6984 11.2637 16.9078 12.0543C16.1172 12.8449 15.1099 13.3833 14.0133 13.6015C12.9167 13.8196 11.7801 13.7076 10.7471 13.2798C9.71414 12.8519 8.83124 12.1273 8.21007 11.1977C7.58889 10.268 7.25734 9.17504 7.25734 8.05696C7.25734 6.55765 7.85294 5.11976 8.91311 4.05959C9.97327 2.99943 11.4112 2.40383 12.9105 2.40383Z" fill="black"/>
</svg>
